<svg width="22" height="22" viewBox="0 0 22 22" fill="none" xmlns="http://www.w3.org/2000/svg">
<path fill-rule="evenodd" clip-rule="evenodd" d="M11 0.5C11.4142 0.5 11.75 0.835786 11.75 1.25V3.5C11.75 3.91421 11.4142 4.25 11 4.25C10.5858 4.25 10.25 3.91421 10.25 3.5V1.25C10.25 0.835786 10.5858 0.5 11 0.5Z" fill="#1E293B"/>
<path fill-rule="evenodd" clip-rule="evenodd" d="M11 17.75C11.4142 17.75 11.75 18.0858 11.75 18.5V20.75C11.75 21.1642 11.4142 21.5 11 21.5C10.5858 21.5 10.25 21.1642 10.25 20.75V18.5C10.25 18.0858 10.5858 17.75 11 17.75Z" fill="#1E293B"/>
<path fill-rule="evenodd" clip-rule="evenodd" d="M18.4247 3.57529C18.7176 3.86819 18.7176 4.34306 18.4247 4.63595L16.8338 6.22689C16.5409 6.51979 16.066 6.51979 15.7731 6.22689C15.4802 5.934 15.4802 5.45913 15.7731 5.16623L17.364 3.5753C17.6569 3.2824 18.1318 3.2824 18.4247 3.57529Z" fill="#1E293B"/>
<path fill-rule="evenodd" clip-rule="evenodd" d="M6.22689 15.7731C6.51979 16.066 6.51979 16.5409 6.22689 16.8338L4.63595 18.4247C4.34306 18.7176 3.86819 18.7176 3.57529 18.4247C3.2824 18.1318 3.2824 17.6569 3.5753 17.364L5.16623 15.7731C5.45913 15.4802 5.934 15.4802 6.22689 15.7731Z" fill="#1E293B"/>
<path fill-rule="evenodd" clip-rule="evenodd" d="M17.75 11C17.75 10.5858 18.0858 10.25 18.5 10.25H20.75C21.1642 10.25 21.5 10.5858 21.5 11C21.5 11.4142 21.1642 11.75 20.75 11.75H18.5C18.0858 11.75 17.75 11.4142 17.75 11Z" fill="#1E293B"/>
<path fill-rule="evenodd" clip-rule="evenodd" d="M0.5 11C0.5 10.5858 0.835786 10.25 1.25 10.25H3.5C3.91421 10.25 4.25 10.5858 4.25 11C4.25 11.4142 3.91421 11.75 3.5 11.75H1.25C0.835786 11.75 0.5 11.4142 0.5 11Z" fill="#1E293B"/>
<path fill-rule="evenodd" clip-rule="evenodd" d="M15.7731 15.7731C16.066 15.4802 16.5409 15.4802 16.8338 15.7731L18.4247 17.364C18.7176 17.6569 18.7176 18.1318 18.4247 18.4247C18.1318 18.7176 17.6569 18.7176 17.364 18.4247L15.7731 16.8338C15.4802 16.5409 15.4802 16.066 15.7731 15.7731Z" fill="#1E293B"/>
<path fill-rule="evenodd" clip-rule="evenodd" d="M3.57529 3.57529C3.86819 3.2824 4.34306 3.2824 4.63596 3.57529L6.22689 5.16623C6.51979 5.45913 6.51979 5.934 6.22689 6.22689C5.934 6.51979 5.45913 6.51979 5.16623 6.22689L3.57529 4.63596C3.2824 4.34306 3.2824 3.86819 3.57529 3.57529Z" fill="#1E293B"/>
<path fill-rule="evenodd" clip-rule="evenodd" d="M11 8C9.34315 8 8 9.34315 8 11C8 12.6569 9.34315 14 11 14C12.6569 14 14 12.6569 14 11C14 9.34315 12.6569 8 11 8ZM6.5 11C6.5 8.51472 8.51472 6.5 11 6.5C13.4853 6.5 15.5 8.51472 15.5 11C15.5 13.4853 13.4853 15.5 11 15.5C8.51472 15.5 6.5 13.4853 6.5 11Z" fill="#1E293B"/>
</svg>
