<svg width="22" height="22" viewBox="0 0 22 22" fill="none" xmlns="http://www.w3.org/2000/svg">
<path fill-rule="evenodd" clip-rule="evenodd" d="M7.78035 0.719712C7.9983 0.93768 8.0607 1.2668 7.93765 1.54942C7.45312 2.66226 7.25 4.00443 7.25 5.37502C7.25 10.5525 11.4475 14.75 16.625 14.75C17.9956 14.75 19.3378 14.5469 20.4506 14.0624C20.7332 13.9393 21.0623 14.0017 21.2803 14.2197C21.4983 14.4376 21.5607 14.7667 21.4377 15.0494C19.7558 18.913 15.8223 21.5 11.375 21.5C5.36907 21.5 0.5 16.631 0.5 10.625C0.5 6.17771 3.08704 2.24418 6.95066 0.56235C7.23328 0.439323 7.5624 0.501745 7.78035 0.719712ZM5.9893 2.81353C3.55977 4.51825 2 7.40413 2 10.625C2 15.8025 6.19749 20 11.375 20C14.5959 20 17.4818 18.4403 19.1865 16.0107C18.3445 16.1795 17.4746 16.25 16.625 16.25C10.6191 16.25 5.75 11.381 5.75 5.37502C5.75 4.52539 5.82048 3.6555 5.9893 2.81353Z" fill="#1E293B"/>
</svg>
